<svg width="128" height="128" viewBox="0 0 128 128" fill="none" xmlns="http://www.w3.org/2000/svg">
<path d="M53.8018 54.6196C53.8018 54.4292 53.7721 54.2599 53.7129 54.1118C53.6579 53.9637 53.5584 53.8283 53.4146 53.7056C53.2707 53.5828 53.0675 53.4644 52.8052 53.3501C52.547 53.2316 52.217 53.111 51.8149 52.9883C51.3748 52.8529 50.9686 52.7026 50.5962 52.5376C50.228 52.3683 49.9064 52.1737 49.6313 51.9536C49.3563 51.7293 49.1426 51.4733 48.9902 51.1855C48.8379 50.8936 48.7617 50.5571 48.7617 50.1763C48.7617 49.7996 48.84 49.4569 48.9966 49.1479C49.1574 48.839 49.3838 48.5724 49.6758 48.3481C49.972 48.1196 50.3211 47.944 50.7231 47.8213C51.1252 47.6943 51.5695 47.6309 52.0562 47.6309C52.7417 47.6309 53.332 47.7578 53.8271 48.0117C54.3265 48.2656 54.7095 48.6063 54.9761 49.0337C55.2469 49.4611 55.3823 49.9329 55.3823 50.4492H53.8018C53.8018 50.1445 53.7362 49.8758 53.605 49.6431C53.478 49.4061 53.2834 49.2199 53.021 49.0845C52.7629 48.9491 52.4349 48.8813 52.0371 48.8813C51.6605 48.8813 51.3473 48.9385 51.0977 49.0527C50.848 49.167 50.6618 49.3215 50.5391 49.5161C50.4163 49.7108 50.355 49.9308 50.355 50.1763C50.355 50.3498 50.3952 50.5085 50.4756 50.6523C50.556 50.792 50.6787 50.9232 50.8438 51.0459C51.0088 51.1644 51.2161 51.2765 51.4658 51.3823C51.7155 51.4881 52.0096 51.5897 52.3481 51.687C52.8602 51.8394 53.3066 52.0086 53.6875 52.1948C54.0684 52.3768 54.3857 52.5841 54.6396 52.8169C54.8936 53.0496 55.084 53.3141 55.2109 53.6104C55.3379 53.9023 55.4014 54.2345 55.4014 54.6069C55.4014 54.9963 55.3231 55.3475 55.1665 55.6606C55.0099 55.9696 54.7856 56.234 54.4937 56.4541C54.2059 56.6699 53.8589 56.8371 53.4526 56.9556C53.0506 57.0698 52.6021 57.127 52.1069 57.127C51.6626 57.127 51.2246 57.0677 50.793 56.9492C50.3656 56.8307 49.9762 56.6509 49.625 56.4097C49.2738 56.1642 48.9945 55.8595 48.7871 55.4956C48.5798 55.1274 48.4761 54.6979 48.4761 54.207H50.0693C50.0693 54.5075 50.1201 54.7635 50.2217 54.9751C50.3275 55.1867 50.4735 55.3602 50.6597 55.4956C50.8459 55.6268 51.0617 55.7241 51.3071 55.7876C51.5568 55.8511 51.8234 55.8828 52.1069 55.8828C52.4793 55.8828 52.7904 55.8299 53.04 55.7241C53.2939 55.6183 53.4844 55.4702 53.6113 55.2798C53.7383 55.0894 53.8018 54.8693 53.8018 54.6196ZM60.6128 47.7578V57H59.0322V47.7578H60.6128ZM63.5137 47.7578V49.0273H56.1567V47.7578H63.5137ZM67.7222 48.9893L64.9609 57H63.2915L66.77 47.7578H67.8364L67.7222 48.9893ZM70.0327 57L67.2651 48.9893L67.1445 47.7578H68.2173L71.7085 57H70.0327ZM69.8994 53.5723V54.8354H64.8721V53.5723H69.8994ZM72.7432 47.7578H76.0122C76.7147 47.7578 77.3135 47.8636 77.8086 48.0752C78.3037 48.2868 78.6825 48.5999 78.9448 49.0146C79.2114 49.4251 79.3447 49.9329 79.3447 50.5381C79.3447 50.9993 79.2601 51.4056 79.0908 51.7568C78.9215 52.1081 78.6825 52.4043 78.3735 52.6455C78.0646 52.8825 77.6965 53.0666 77.269 53.1978L76.7866 53.4326H73.8477L73.835 52.1694H76.0376C76.4185 52.1694 76.7358 52.1017 76.9897 51.9663C77.2437 51.8309 77.4341 51.6468 77.561 51.4141C77.6922 51.1771 77.7578 50.9105 77.7578 50.6143C77.7578 50.2926 77.6943 50.0133 77.5674 49.7764C77.4447 49.5352 77.2542 49.3511 76.9961 49.2241C76.738 49.0929 76.41 49.0273 76.0122 49.0273H74.3364V57H72.7432V47.7578ZM78.0181 57L75.8472 52.8486L77.5166 52.8423L79.7192 56.9175V57H78.0181Z" fill="#000021"/>
<path d="M37.5391 70.5684V76.2031C37.3177 76.4701 36.9759 76.7598 36.5137 77.0723C36.0514 77.3783 35.4557 77.6419 34.7266 77.8633C33.9974 78.0846 33.1152 78.1953 32.0801 78.1953C31.1621 78.1953 30.3255 78.0456 29.5703 77.7461C28.8151 77.4401 28.1641 76.9941 27.6172 76.4082C27.0768 75.8223 26.6602 75.1061 26.3672 74.2598C26.0742 73.4069 25.9277 72.4336 25.9277 71.3398V70.4512C25.9277 69.3574 26.0677 68.3841 26.3477 67.5312C26.6341 66.6784 27.041 65.959 27.5684 65.373C28.0957 64.7871 28.724 64.3411 29.4531 64.0352C30.1823 63.7292 30.9928 63.5762 31.8848 63.5762C33.1217 63.5762 34.1374 63.778 34.9316 64.1816C35.7259 64.5788 36.3314 65.1322 36.748 65.8418C37.1712 66.5449 37.4316 67.3522 37.5293 68.2637H34.6875C34.6159 67.7819 34.4792 67.362 34.2773 67.0039C34.0755 66.6458 33.7858 66.3659 33.4082 66.1641C33.0371 65.9622 32.5553 65.8613 31.9629 65.8613C31.4746 65.8613 31.0384 65.9622 30.6543 66.1641C30.2767 66.3594 29.9577 66.6491 29.6973 67.0332C29.4368 67.4173 29.2383 67.8926 29.1016 68.459C28.9648 69.0254 28.8965 69.6829 28.8965 70.4316V71.3398C28.8965 72.082 28.9681 72.7396 29.1113 73.3125C29.2546 73.8789 29.4661 74.3574 29.7461 74.748C30.0326 75.1322 30.3841 75.4219 30.8008 75.6172C31.2174 75.8125 31.7025 75.9102 32.2559 75.9102C32.7181 75.9102 33.1022 75.8711 33.4082 75.793C33.7207 75.7148 33.9714 75.6204 34.1602 75.5098C34.3555 75.3926 34.5052 75.2819 34.6094 75.1777V72.6582H31.9336V70.5684H37.5391ZM45.6836 66.2129L41.8164 78H38.7012L43.9844 63.7812H45.9668L45.6836 66.2129ZM48.8965 78L45.0195 66.2129L44.707 63.7812H46.709L52.0215 78H48.8965ZM48.7207 72.707V75.002H41.2109V72.707H48.7207ZM62.4805 75.7148V78H55.3223V75.7148H62.4805ZM56.2695 63.7812V78H53.3398V63.7812H56.2695ZM70.1367 66.2129L66.2695 78H63.1543L68.4375 63.7812H70.4199L70.1367 66.2129ZM73.3496 78L69.4727 66.2129L69.1602 63.7812H71.1621L76.4746 78H73.3496ZM73.1738 72.707V75.002H65.6641V72.707H73.1738ZM80.2051 63.7812L82.8809 68.7422L85.5566 63.7812H88.9062L84.7754 70.832L89.0137 78H85.6348L82.8809 72.9414L80.127 78H76.7285L80.9766 70.832L76.8359 63.7812H80.2051ZM92.4414 63.7812L95.4102 70.2656L98.3789 63.7812H101.572L96.8945 72.8242V78H93.9258V72.8242L89.2383 63.7812H92.4414Z" fill="#FFBD13"/>
</svg>
